<svg width="163" height="163" viewBox="0 0 163 163" fill="none" xmlns="http://www.w3.org/2000/svg">
<path d="M136.499 128.18C135.619 127.525 134.988 126.799 134.606 126.002C134.224 125.21 134.078 124.407 134.167 123.594C134.255 122.783 134.565 122.019 135.097 121.304C135.629 120.589 136.272 120.072 137.026 119.753C137.781 119.439 138.593 119.35 139.463 119.485C140.334 119.625 141.208 120.022 142.086 120.675C142.966 121.33 143.596 122.053 143.978 122.846C144.36 123.642 144.507 124.446 144.42 125.257C144.331 126.071 144.02 126.835 143.487 127.55C142.955 128.266 142.313 128.781 141.561 129.098C140.807 129.416 139.995 129.506 139.124 129.366C138.254 129.23 137.379 128.835 136.499 128.18ZM137.606 126.693C138.225 127.154 138.82 127.446 139.39 127.568C139.96 127.695 140.481 127.67 140.953 127.492C141.427 127.316 141.829 127.006 142.16 126.562C142.49 126.118 142.672 125.644 142.704 125.139C142.74 124.636 142.615 124.129 142.332 123.616C142.049 123.108 141.598 122.623 140.978 122.162C140.359 121.701 139.764 121.407 139.193 121.28C138.624 121.157 138.102 121.184 137.628 121.36C137.156 121.538 136.755 121.849 136.425 122.293C136.094 122.737 135.911 123.21 135.876 123.713C135.843 124.217 135.969 124.724 136.251 125.232C136.535 125.744 136.987 126.231 137.606 126.693Z" fill="white"/>
<path d="M129.626 141.743L128.214 142.93L123.934 137.838C123.465 137.279 123.184 136.678 123.092 136.032C122.997 135.389 123.086 134.748 123.36 134.111C123.637 133.476 124.092 132.892 124.726 132.359C125.363 131.824 126.018 131.475 126.69 131.312C127.365 131.152 128.012 131.174 128.629 131.378C129.247 131.582 129.79 131.963 130.259 132.521L134.539 137.613L133.127 138.8L128.946 133.826C128.673 133.501 128.359 133.271 128.004 133.137C127.646 133.005 127.276 132.976 126.893 133.051C126.512 133.129 126.143 133.318 125.785 133.619C125.427 133.92 125.177 134.251 125.035 134.613C124.893 134.979 124.858 135.349 124.929 135.722C125 136.095 125.172 136.444 125.445 136.769L129.626 141.743Z" fill="white"/>
<path d="M115.612 139.188L120.262 148.246L116.866 149.99C116.17 150.347 115.524 150.526 114.928 150.527C114.329 150.529 113.797 150.374 113.331 150.061C112.864 149.754 112.482 149.311 112.185 148.733C111.887 148.152 111.752 147.584 111.78 147.029C111.807 146.479 111.999 145.965 112.357 145.487C112.717 145.012 113.245 144.595 113.94 144.238L116.36 142.996L117.059 144.358L114.861 145.487C114.454 145.696 114.15 145.923 113.948 146.168C113.747 146.416 113.641 146.681 113.629 146.963C113.616 147.249 113.692 147.553 113.857 147.874C114.022 148.196 114.226 148.437 114.47 148.599C114.714 148.764 114.997 148.839 115.317 148.824C115.638 148.811 116.004 148.7 116.414 148.49L117.918 147.718L113.971 140.031L115.612 139.188ZM113.04 145.695L108.69 142.742L110.521 141.802L114.831 144.776L113.04 145.695Z" fill="white"/>
<path d="M93.9056 147.361L95.1904 157.461L91.4028 157.943C90.6268 158.042 89.9587 157.99 89.3983 157.787C88.8347 157.585 88.3871 157.258 88.0556 156.805C87.7212 156.357 87.513 155.81 87.4311 155.166C87.3487 154.518 87.4153 153.938 87.6308 153.426C87.8435 152.918 88.1996 152.5 88.6992 152.173C89.1992 151.849 89.8372 151.637 90.6131 151.539L93.3109 151.195L93.5041 152.714L91.053 153.026C90.5992 153.084 90.2356 153.194 89.9622 153.355C89.6892 153.52 89.4991 153.733 89.392 153.994C89.2819 154.259 89.2497 154.57 89.2953 154.929C89.3409 155.287 89.4505 155.584 89.6241 155.819C89.7981 156.058 90.0381 156.224 90.3442 156.319C90.6507 156.417 91.0324 156.437 91.4894 156.379L93.1663 156.165L92.0759 147.594L93.9056 147.361ZM89.2699 152.602L86.1873 148.343L88.2291 148.083L91.2673 152.347L89.2699 152.602Z" fill="white"/>
<path d="M79.3958 148.458L78.5453 158.604L71.9463 158.051L72.0754 156.511L76.8365 156.91L77.0673 154.155L72.6482 153.785L72.7773 152.244L77.1965 152.614L77.4286 149.845L72.628 149.443L72.7571 147.902L79.3958 148.458Z" fill="white"/>
<path d="M55.635 150.584L57.4108 151.135C57.371 151.442 57.3843 151.729 57.4506 151.996C57.516 152.266 57.6254 152.512 57.7788 152.733C57.9323 152.954 58.1265 153.145 58.3615 153.305C58.5924 153.466 58.8566 153.594 59.1541 153.686C59.6827 153.85 60.1925 153.863 60.6833 153.723C61.1732 153.587 61.6128 153.3 62.0021 152.863C62.3904 152.428 62.6981 151.845 62.9251 151.114C63.156 150.37 63.235 149.707 63.1622 149.126C63.0851 148.547 62.8843 148.064 62.5598 147.679C62.231 147.296 61.8039 147.023 61.2785 146.86C60.9873 146.769 60.7033 146.723 60.4264 146.72C60.1455 146.72 59.8801 146.764 59.6304 146.853C59.3774 146.941 59.147 147.074 58.9389 147.253C58.7277 147.43 58.5509 147.653 58.4087 147.921L56.6359 147.36C56.8458 146.919 57.1244 146.53 57.4718 146.193C57.816 145.856 58.2135 145.587 58.6643 145.387C59.1142 145.19 59.6035 145.078 60.1324 145.052C60.6602 145.028 61.2138 145.106 61.7931 145.286C62.6477 145.551 63.3492 145.986 63.8974 146.59C64.4456 147.194 64.7968 147.929 64.9511 148.796C65.1054 149.663 65.0204 150.619 64.6961 151.664C64.3708 152.711 63.898 153.547 63.2778 154.17C62.6565 154.796 61.9489 155.203 61.1551 155.39C60.3612 155.577 59.5401 155.539 58.6917 155.276C58.1505 155.108 57.6707 154.876 57.2526 154.579C56.8345 154.283 56.4891 153.931 56.2165 153.524C55.9428 153.119 55.7548 152.669 55.6522 152.172C55.5455 151.677 55.5398 151.148 55.635 150.584Z" fill="white"/>
<path d="M51.3878 141.342L46.3428 150.186L40.5907 146.905L41.3568 145.562L45.5068 147.929L46.8765 145.528L43.0245 143.331L43.7906 141.988L47.6426 144.185L49.0196 141.771L44.8351 139.384L45.6012 138.041L51.3878 141.342Z" fill="white"/>
<path d="M26.8946 136.042L33.7284 128.494L34.9446 129.595L33.8461 137.957L33.9088 138.013L38.5636 132.872L39.9309 134.11L33.0971 141.658L31.8736 140.55L32.979 132.189L32.9127 132.129L28.2545 137.273L26.8946 136.042Z" fill="white"/>
<path d="M22.1497 128.435L20.8828 129.322L16.2266 122.665L17.4936 121.779L19.2974 124.357L26.3738 119.408L27.4224 120.907L20.346 125.857L22.1497 128.435Z" fill="white"/>
<path d="M17.9294 102.721L8.09644 105.364L7.1055 101.677C6.90249 100.921 6.87301 100.25 7.01705 99.6618C7.16024 99.0708 7.44302 98.5778 7.86541 98.1828C8.28375 97.7856 8.80499 97.5031 9.42915 97.3353C10.0597 97.1659 10.6556 97.1482 11.2167 97.2822C11.7778 97.4163 12.2689 97.7047 12.6899 98.1476C13.1077 98.5913 13.4186 99.1924 13.6224 99.951L14.2792 102.395L12.8148 102.788L12.2226 100.585C12.1039 100.143 11.9298 99.8018 11.7005 99.5615C11.4712 99.3211 11.204 99.1698 10.899 99.1076C10.5931 99.0422 10.2658 99.0564 9.91688 99.1502C9.56799 99.244 9.2792 99.3953 9.05052 99.6044C8.82098 99.8102 8.67087 100.075 8.60019 100.4C8.52545 100.722 8.54786 101.105 8.66743 101.55L9.10612 103.183L17.4507 100.94L17.9294 102.721Z" fill="white"/>
<path d="M14.8485 88.5109L4.67705 88.9704L4.50473 85.1561C4.46943 84.3747 4.57557 83.713 4.82314 83.171C5.07056 82.6256 5.43315 82.2061 5.91092 81.9125C6.38522 81.6157 6.94685 81.4526 7.59581 81.4233C8.24808 81.3938 8.82055 81.5073 9.31321 81.7638C9.80241 82.017 10.1899 82.406 10.4757 82.9305C10.7582 83.4552 10.9171 84.1083 10.9524 84.8897L11.0751 87.6064L9.54545 87.6755L9.43393 85.2071C9.41329 84.7502 9.33348 84.3789 9.1945 84.0932C9.05221 83.8077 8.85541 83.6009 8.60411 83.4729C8.34935 83.3418 8.04153 83.2844 7.68062 83.3007C7.31972 83.317 7.01502 83.4021 6.7665 83.556C6.51467 83.71 6.32912 83.9357 6.20984 84.233C6.08725 84.5305 6.03635 84.9094 6.05715 85.3696L6.13343 87.0583L14.7653 86.6683L14.8485 88.5109ZM10.0022 83.4645L14.4974 80.7383L14.5902 82.7944L10.093 85.476L10.0022 83.4645Z" fill="white"/>
<path d="M11.4873 64.1191C12.5667 64.315 13.4546 64.6849 14.1508 65.229C14.8444 65.7691 15.332 66.4235 15.6136 67.1921C15.8958 67.9574 15.9574 68.7787 15.7982 69.656C15.639 70.5332 15.2926 71.2822 14.7589 71.9028C14.2226 72.5197 13.5345 72.9607 12.6948 73.226C11.8524 73.4875 10.8931 73.5206 9.81688 73.3254C8.73744 73.1295 7.85093 72.7615 7.15734 72.2213C6.46109 71.6773 5.97186 71.0226 5.68966 70.2573C5.40805 69.4887 5.34683 68.6658 5.506 67.7885C5.66518 66.9113 6.01131 66.164 6.54439 65.5466C7.07807 64.9259 7.76612 64.4848 8.60853 64.2233C9.44827 63.958 10.4079 63.9233 11.4873 64.1191ZM11.1562 65.9438C10.3964 65.8059 9.73398 65.8086 9.169 65.952C8.60135 66.0916 8.14595 66.3458 7.8028 66.7147C7.45638 67.083 7.23376 67.5395 7.13495 68.0841C7.03613 68.6287 7.08419 69.1343 7.27913 69.6008C7.4708 70.0668 7.80756 70.4664 8.28941 70.7997C8.76859 71.1292 9.3881 71.3629 10.148 71.5008C10.9078 71.6386 11.5715 71.6378 12.1392 71.4983C12.7042 71.3549 13.1599 71.099 13.5063 70.7307C13.8494 70.3618 14.0704 69.905 14.1692 69.3604C14.2681 68.8158 14.2216 68.3105 14.03 67.8446C13.835 67.378 13.498 66.98 13.0188 66.6506C12.5369 66.3172 11.9161 66.0816 11.1562 65.9438Z" fill="white"/>
<path d="M10.5836 51.2755L11.2786 49.5831L17.9011 52.3025C18.5069 52.5549 18.9768 52.8983 19.3107 53.3328C19.6416 53.766 19.8313 54.2596 19.8798 54.8133C19.9264 55.3628 19.8258 55.9395 19.5778 56.5435C19.3511 57.0954 19.0491 57.5518 18.6716 57.9127C18.2922 58.2693 17.855 58.4964 17.3599 58.5941C16.8647 58.6917 16.3274 58.6216 15.748 58.3836L16.4448 56.6866C16.7005 56.788 16.9424 56.8229 17.1705 56.7911C17.3997 56.7563 17.6031 56.6624 17.7805 56.5095C17.9579 56.3567 18.0983 56.1545 18.2015 55.9031C18.3136 55.6302 18.3519 55.3755 18.3165 55.1388C18.2781 54.9009 18.1655 54.6863 17.9789 54.495C17.7936 54.3006 17.536 54.134 17.2061 53.9949L10.5836 51.2755Z" fill="white"/>
<path d="M23.8042 47.4556L15.3171 41.8308L18.9754 36.3109L20.2642 37.165L17.6248 41.1475L19.929 42.6745L22.3788 38.978L23.6676 39.8322L21.2178 43.5287L23.5343 45.064L26.1957 41.0484L27.4845 41.9026L23.8042 47.4556Z" fill="white"/>
<path d="M33.3665 25.6003L32.0292 26.8922C31.7792 26.7097 31.5212 26.5834 31.2552 26.5131C30.9869 26.4405 30.7189 26.4183 30.4512 26.4465C30.1835 26.4747 29.9232 26.5534 29.6701 26.6826C29.4172 26.8072 29.1787 26.9777 28.9546 27.1942C28.5565 27.5787 28.3004 28.0197 28.1863 28.5169C28.07 29.0119 28.1101 29.5353 28.3069 30.0872C28.5013 30.6367 28.8645 31.1867 29.3964 31.7374C29.9376 32.2976 30.4805 32.6855 31.0253 32.9012C31.5701 33.1122 32.0895 33.1681 32.5835 33.0688C33.0775 32.9648 33.5224 32.7217 33.9181 32.3394C34.1374 32.1276 34.3148 31.9009 34.4502 31.6595C34.5857 31.4134 34.6745 31.1594 34.7165 30.8976C34.7609 30.6335 34.755 30.3674 34.6987 30.0992C34.6448 29.8287 34.5344 29.5666 34.3677 29.3129L35.7119 28.0282C35.9981 28.4246 36.2051 28.856 36.333 29.3223C36.4633 29.7863 36.5077 30.2641 36.4664 30.7556C36.4228 31.2447 36.2855 31.7275 36.0546 32.2041C35.8214 32.6782 35.4867 33.126 35.0505 33.5474C34.4068 34.1691 33.6884 34.5751 32.8952 34.7653C32.102 34.9556 31.2883 34.9099 30.454 34.6282C29.6197 34.3466 28.8226 33.8124 28.0627 33.0258C27.3005 32.2368 26.7954 31.4205 26.5474 30.5771C26.2972 29.7313 26.2808 28.9153 26.4983 28.1291C26.7159 27.343 27.144 26.6413 27.7829 26.0242C28.1905 25.6304 28.6248 25.3215 29.0858 25.0974C29.5467 24.8733 30.0213 24.7397 30.5096 24.6966C30.9956 24.6511 31.4811 24.7028 31.9661 24.8518C32.4511 24.9962 32.9179 25.2457 33.3665 25.6003Z" fill="white"/>
<path d="M38.6363 19.1455L37.8368 17.8221L44.7899 13.6213L45.5894 14.9447L42.8958 16.5721L47.3615 23.9635L45.7955 24.9095L41.3299 17.5182L38.6363 19.1455Z" fill="white"/>
<path d="M66.6434 14.3546C66.2518 14.4411 65.873 14.4247 65.5072 14.3052C65.1407 14.1825 64.8246 13.9808 64.5589 13.7C64.2965 13.4186 64.122 13.082 64.0355 12.6904C63.9483 12.2956 63.9648 11.9169 64.085 11.5543C64.2077 11.1878 64.4098 10.8733 64.6912 10.6109C64.972 10.3452 65.3081 10.1691 65.6997 10.0826C66.0946 9.9954 66.4736 10.0135 66.8369 10.1369C67.2028 10.2564 67.5169 10.4568 67.7793 10.7383C68.0443 11.0158 68.2204 11.352 68.3076 11.7468C68.3941 12.1384 68.376 12.5175 68.2533 12.884C68.1338 13.2498 67.9337 13.5656 67.653 13.8312C67.3747 14.093 67.0382 14.2674 66.6434 14.3546Z" fill="white"/>
<path d="M103.521 12.8055C103.254 13.8694 102.825 14.7306 102.236 15.3889C101.651 16.0449 100.965 16.4876 100.179 16.7172C99.3969 16.9477 98.5734 16.9541 97.7087 16.7367C96.8441 16.5192 96.1199 16.1235 95.5363 15.5496C94.9568 14.9732 94.5627 14.2572 94.354 13.4016C94.1495 12.5436 94.1805 11.5842 94.4473 10.5235C94.7149 9.45959 95.1413 8.59965 95.7266 7.94372C96.316 7.28538 97.0019 6.841 97.7844 6.61058C98.5701 6.38097 99.3952 6.37489 100.26 6.59234C101.125 6.80978 101.847 7.20509 102.427 7.77824C103.011 8.35221 103.405 9.0682 103.61 9.9262C103.818 10.7818 103.789 11.7416 103.521 12.8055ZM101.723 12.3532C101.911 11.6043 101.953 10.9432 101.847 10.3699C101.746 9.79418 101.523 9.3228 101.178 8.95576C100.833 8.5855 100.393 8.33288 99.8561 8.19788C99.3193 8.06289 98.8117 8.07705 98.3331 8.24037C97.8554 8.40047 97.4342 8.70977 97.0694 9.16826C96.7086 9.62435 96.4341 10.2269 96.2457 10.9758C96.0574 11.7247 96.0138 12.387 96.1151 12.9628C96.2204 13.5361 96.4452 14.0078 96.7896 14.3781C97.1347 14.7451 97.5757 14.9961 98.1125 15.1311C98.6493 15.2661 99.1565 15.2536 99.6342 15.0935C100.113 14.9302 100.532 14.6205 100.893 14.1644C101.258 13.7059 101.535 13.1022 101.723 12.3532Z" fill="white"/>
<path d="M118.683 13.9519L120.32 14.8007L117.259 20.7064C116.923 21.3537 116.475 21.8438 115.914 22.1765C115.356 22.5108 114.731 22.6736 114.037 22.665C113.345 22.6534 112.631 22.4569 111.895 22.0755C111.157 21.6927 110.583 21.2218 110.175 20.6629C109.768 20.101 109.54 19.4958 109.492 18.8473C109.444 18.1988 109.587 17.5509 109.923 16.9035L112.985 10.9979L114.622 11.8468L111.631 17.6156C111.436 17.9922 111.345 18.3704 111.357 18.7501C111.372 19.1313 111.488 19.4843 111.704 19.8091C111.922 20.131 112.238 20.3995 112.653 20.6146C113.068 20.8297 113.469 20.9334 113.858 20.9257C114.251 20.9166 114.606 20.8077 114.923 20.5989C115.241 20.39 115.497 20.0973 115.692 19.7206L118.683 13.9519Z" fill="white"/>
<path d="M121.698 27.8742L128.28 20.1058L131.193 22.574C131.789 23.0796 132.202 23.6075 132.431 24.1577C132.663 24.71 132.724 25.2611 132.614 25.8111C132.509 26.3606 132.246 26.8832 131.826 27.3789C131.404 27.8771 130.932 28.2195 130.409 28.4062C129.89 28.5925 129.341 28.612 128.763 28.4647C128.186 28.3148 127.599 27.9871 127.002 27.4815L124.927 25.7235L125.917 24.5552L127.802 26.1525C128.151 26.4481 128.478 26.6422 128.782 26.7347C129.088 26.8246 129.373 26.821 129.638 26.7238C129.907 26.6263 130.159 26.4397 130.392 26.1641C130.626 25.8884 130.771 25.6072 130.827 25.3203C130.886 25.031 130.846 24.7414 130.709 24.4517C130.575 24.1595 130.332 23.8645 129.98 23.5667L128.691 22.474L123.105 29.0666L121.698 27.8742ZM128.693 27.7544L127.634 32.9038L126.064 31.5733L127.157 26.4528L128.693 27.7544Z" fill="white"/>
<path d="M137.569 44.7871L146.405 39.7273L148.302 43.0407C148.691 43.7195 148.899 44.3565 148.927 44.9517C148.956 45.5499 148.825 46.0887 148.535 46.5683C148.249 47.0492 147.824 47.451 147.26 47.7738C146.693 48.0983 146.132 48.2592 145.577 48.2564C145.026 48.2548 144.504 48.0862 144.01 47.7503C143.518 47.4129 143.079 46.9047 142.69 46.226L141.338 43.8661L142.667 43.1051L143.895 45.2493C144.122 45.6462 144.363 45.9399 144.617 46.1304C144.875 46.3193 145.144 46.4132 145.426 46.4121C145.713 46.4123 146.013 46.3226 146.326 46.143C146.64 45.9635 146.872 45.7485 147.022 45.498C147.176 45.2459 147.238 44.9603 147.208 44.6413C147.181 44.3207 147.053 43.9605 146.824 43.5607L145.984 42.0938L138.486 46.3877L137.569 44.7871ZM144.187 47.0589L141.436 51.5389L140.413 49.7528L143.186 45.3116L144.187 47.0589Z" fill="white"/>
<path d="M144.146 57.7671L153.843 54.6617L155.863 60.9684L154.39 61.4399L152.933 56.8899L150.301 57.7329L151.653 61.9563L150.181 62.4279L148.828 58.2045L146.181 59.0521L147.651 63.64L146.178 64.1116L144.146 57.7671Z" fill="white"/>
<path d="M155.221 78.8962L155.049 77.0448C155.348 76.9638 155.608 76.8415 155.829 76.6779C156.054 76.5139 156.239 76.3187 156.384 76.0921C156.529 75.8656 156.631 75.6132 156.688 75.3349C156.749 75.0596 156.765 74.7669 156.737 74.4567C156.685 73.9055 156.501 73.43 156.185 73.03C155.871 72.6297 155.438 72.3337 154.884 72.1421C154.334 71.9502 153.677 71.8896 152.915 71.9603C152.139 72.0323 151.497 72.2134 150.988 72.5036C150.483 72.7969 150.114 73.1672 149.883 73.6148C149.655 74.0653 149.567 74.5645 149.618 75.1123C149.646 75.4159 149.712 75.6961 149.815 75.9528C149.923 76.2124 150.065 76.4405 150.243 76.637C150.422 76.8368 150.633 76.9986 150.878 77.1224C151.122 77.2495 151.396 77.3273 151.698 77.3558L151.86 79.2082C151.372 79.1836 150.906 79.0754 150.462 78.8835C150.018 78.695 149.618 78.431 149.26 78.0914C148.905 77.7514 148.615 77.3424 148.387 76.8642C148.163 76.3857 148.023 75.8445 147.967 75.2406C147.884 74.3495 148.017 73.535 148.364 72.7971C148.712 72.0591 149.256 71.4527 149.998 70.9778C150.739 70.5029 151.655 70.2149 152.744 70.1139C153.836 70.0125 154.789 70.1288 155.602 70.4627C156.419 70.7964 157.065 71.2939 157.543 71.9553C158.02 72.6166 158.3 73.3895 158.382 74.274C158.435 74.8383 158.404 75.3704 158.291 75.8702C158.177 76.3701 157.985 76.824 157.713 77.232C157.445 77.6397 157.101 77.9862 156.681 78.2714C156.265 78.5597 155.779 78.768 155.221 78.8962Z" fill="white"/>
<path d="M148.315 86.3626L158.417 87.6306L157.592 94.2012L156.058 94.0087L156.653 89.2682L153.911 88.9239L153.358 93.3241L151.824 93.1315L152.376 88.7314L149.619 88.3853L149.019 93.1653L147.485 92.9727L148.315 86.3626Z" fill="white"/>
<path d="M152.812 111.016L143.221 107.599L143.771 106.053L151.915 103.862L151.943 103.782L145.41 101.454L146.029 99.717L155.62 103.134L155.066 104.689L146.92 106.874L146.89 106.959L153.428 109.288L152.812 111.016Z" fill="white"/>
<path d="M147.606 118.315L148.911 119.145L144.548 125.998L143.244 125.168L144.934 122.513L137.649 117.876L138.631 116.332L145.916 120.97L147.606 118.315Z" fill="white"/>
<path d="M125.476 132.073L131.688 140.141L128.662 142.47C128.042 142.947 127.433 143.232 126.835 143.325C126.234 143.419 125.671 143.347 125.144 143.108C124.617 142.874 124.156 142.501 123.762 141.989C123.363 141.472 123.119 140.928 123.027 140.358C122.936 139.789 123.014 139.225 123.261 138.666C123.511 138.11 123.947 137.592 124.569 137.113L126.575 135.57L127.5 136.771L125.691 138.163C125.329 138.442 125.081 138.734 124.947 139.038C124.813 139.342 124.775 139.646 124.835 139.952C124.892 140.259 125.03 140.556 125.251 140.843C125.471 141.129 125.722 141.338 126.002 141.469C126.281 141.602 126.583 141.639 126.91 141.579C127.236 141.525 127.581 141.357 127.947 141.076L129.286 140.045L124.015 133.198L125.476 132.073Z" fill="white"/>
<path d="M113.534 140.368L117.858 149.585L114.402 151.207C113.694 151.54 113.042 151.695 112.446 151.674C111.848 151.655 111.321 151.481 110.867 151.152C110.411 150.828 110.045 150.372 109.769 149.784C109.492 149.193 109.377 148.621 109.425 148.067C109.471 147.518 109.682 147.011 110.057 146.546C110.433 146.084 110.975 145.687 111.683 145.355L114.145 144.2L114.796 145.586L112.559 146.635C112.145 146.83 111.832 147.046 111.622 147.284C111.413 147.525 111.297 147.786 111.275 148.067C111.252 148.352 111.317 148.659 111.47 148.986C111.624 149.313 111.819 149.562 112.057 149.732C112.296 149.906 112.575 149.99 112.895 149.987C113.217 149.986 113.587 149.887 114.004 149.692L115.534 148.974L111.864 141.151L113.534 140.368ZM110.731 146.779L106.49 143.673L108.353 142.798L112.554 145.924L110.731 146.779Z" fill="white"/>
<path d="M92.2955 152.826C92.0624 151.753 92.0636 150.792 92.2991 149.94C92.532 149.092 92.9494 148.391 93.5512 147.836C94.1498 147.282 94.8847 146.91 95.756 146.721C96.6272 146.532 97.4517 146.564 98.2296 146.819C99.0049 147.078 99.6761 147.544 100.243 148.218C100.808 148.896 101.206 149.769 101.438 150.838C101.672 151.91 101.672 152.87 101.439 153.718C101.203 154.569 100.786 155.272 100.188 155.826C99.5857 156.381 98.8492 156.753 97.978 156.942C97.1068 157.132 96.2838 157.099 95.5092 156.843C94.7313 156.588 94.0602 156.122 93.4956 155.444C92.9286 154.77 92.5285 153.898 92.2955 152.826ZM94.1076 152.432C94.2716 153.186 94.5282 153.797 94.8772 154.264C95.2238 154.734 95.6332 155.058 96.1055 155.233C96.5785 155.412 97.0854 155.442 97.6263 155.325C98.1672 155.207 98.6157 154.969 98.9718 154.61C99.3286 154.254 99.5686 153.79 99.6916 153.217C99.8122 152.648 99.7904 151.987 99.6264 151.232C99.4623 150.477 99.207 149.865 98.8605 149.394C98.5114 148.927 98.1004 148.604 97.6274 148.426C97.1551 148.25 96.6485 148.221 96.1076 148.339C95.5668 148.456 95.1179 148.693 94.7611 149.049C94.405 149.408 94.1666 149.872 94.0461 150.44C93.923 151.013 93.9435 151.677 94.1076 152.432Z" fill="white"/>
<path d="M80.7802 158.585L78.9507 158.592L78.9227 151.433C78.9234 150.777 79.0604 150.211 79.3336 149.736C79.6069 149.265 79.9899 148.9 80.4828 148.643C80.9723 148.389 81.5436 148.261 82.1965 148.259C82.7931 148.256 83.3304 148.36 83.8085 148.57C84.2833 148.784 84.6607 149.101 84.9408 149.521C85.2209 149.94 85.3621 150.464 85.3646 151.09L83.5301 151.097C83.5257 150.822 83.4651 150.585 83.3483 150.387C83.2282 150.189 83.0635 150.037 82.8543 149.931C82.6451 149.826 82.4046 149.774 82.1328 149.775C81.8378 149.776 81.5879 149.839 81.3828 149.962C81.1778 150.089 81.0228 150.275 80.9177 150.521C80.8093 150.766 80.7541 151.068 80.7522 151.426L80.7802 158.585Z" fill="white"/>
<path d="M72.1827 147.84L70.2424 157.835L63.7416 156.573L64.0362 155.056L68.7263 155.966L69.2531 153.253L64.8997 152.407L65.1944 150.89L69.5478 151.735L70.0774 149.006L65.3482 148.088L65.6428 146.571L72.1827 147.84Z" fill="white"/>
<path d="M48.3313 147.39L50.0372 148.129C49.9645 148.43 49.9468 148.717 49.9839 148.989C50.0197 149.265 50.102 149.521 50.2307 149.758C50.3594 149.994 50.5319 150.204 50.7483 150.388C50.9603 150.574 51.2093 150.729 51.4951 150.853C52.0029 151.073 52.5083 151.141 53.0114 151.055C53.5131 150.973 53.9811 150.735 54.4153 150.342C54.8483 149.952 55.217 149.405 55.5216 148.703C55.8314 147.988 55.9815 147.338 55.9718 146.752C55.9578 146.168 55.8102 145.667 55.5291 145.249C55.2436 144.832 54.8485 144.515 54.3437 144.296C54.0639 144.175 53.7866 144.098 53.5117 144.065C53.2324 144.034 52.9638 144.05 52.7059 144.111C52.445 144.172 52.2015 144.279 51.9754 144.434C51.7462 144.588 51.5465 144.79 51.3761 145.041L49.6742 144.292C49.9305 143.876 50.2495 143.52 50.6312 143.223C51.0097 142.924 51.4339 142.7 51.9037 142.55C52.3722 142.403 52.8707 142.344 53.3994 142.375C53.9267 142.408 54.4686 142.546 55.0251 142.787C55.8461 143.143 56.4966 143.651 56.9764 144.31C57.4562 144.97 57.7261 145.739 57.7859 146.618C57.8457 147.496 57.6581 148.437 57.223 149.441C56.7865 150.447 56.2264 151.227 55.5425 151.779C54.8573 152.334 54.11 152.662 53.3005 152.763C52.491 152.864 51.6788 152.737 50.8639 152.384C50.3439 152.158 49.892 151.876 49.5083 151.536C49.1246 151.196 48.8192 150.809 48.5921 150.375C48.3637 149.943 48.2254 149.475 48.177 148.97C48.1243 148.467 48.1757 147.94 48.3313 147.39Z" fill="white"/>
<path d="M40.3491 144.998L39.4335 146.244L32.8875 141.433L33.8031 140.187L36.339 142.051L41.4529 135.092L42.9272 136.176L37.8133 143.134L40.3491 144.998Z" fill="white"/>
<path d="M25.1847 120.969C25.4147 121.298 25.5447 121.654 25.5747 122.037C25.6019 122.423 25.5368 122.792 25.3794 123.145C25.2201 123.495 24.9762 123.786 24.6477 124.016C24.3165 124.248 23.9604 124.378 23.5795 124.406C23.1939 124.433 22.826 124.367 22.4757 124.208C22.1226 124.05 21.8311 123.807 21.6011 123.479C21.3691 123.147 21.2405 122.79 21.2151 122.408C21.1852 122.024 21.2499 121.657 21.4092 121.307C21.5639 120.956 21.8068 120.664 22.138 120.432C22.4665 120.202 22.8236 120.073 23.2091 120.046C23.5928 120.016 23.9611 120.08 24.3141 120.237C24.6625 120.394 24.9527 120.638 25.1847 120.969Z" fill="white"/>
</svg>
