<svg xmlns="http://www.w3.org/2000/svg" version="1.1" viewBox="-5.0 -10.0 110.0 135.0">
 <path d="m48.504 5-0.003906 3h-1.5v6h-1.5v6h-1.5v4.5h-1.5v6h-1.5v4.5h-1.5v3h-1.5v1.5h-3v1.5h-3v1.5h-6v1.5h-4.5v1.5h-6v1.5h-6v1.5h-4.5v3h4.5v1.5h6v1.5h6v1.5h4.5v1.5h6v1.5h3v1.5h3v1.5h1.5v4.5h1.5v4.5h1.5v6h1.5v4.5h1.5v6h1.5v4.5h1.5v3h3v-3h1.5v-4.5h1.5v-6h1.5v-4.5h1.5v-6h1.5v-4.5h1.5v-4.5h1.5v-1.5h3v-1.5h3v-1.5h6v-1.5h4.5v-1.5h6v-1.5h6v-1.5h4.5v-3h-4.5v-1.5h-6v-1.5h-6v-1.5h-4.5v-1.5h-6v-1.5h-3v-1.5h-3v-1.5h-1.5v-3h-1.5v-4.5h-1.5v-6h-1.5v-4.5h-1.5v-6h-1.5v-6h-1.5v-3zm-0.003906 9h1.5v4.5h-1.5v4.5h-1.5v7.5h-1.5v6h-1.5v3h-1.5v1.5h-1.5v1.5h-1.5v1.5h-3v1.5h-4.5v1.5h-6v1.5h-6v1.5h-6v-1.5h6v-1.5h6v-1.5h6v-1.5h4.5v-1.5h3v-1.5h1.5v-1.5h1.5v-3h1.5v-6h1.5v-7.5h1.5v-4.5h1.5zm16.5 30h3v1.5h6v1.5h6v1.5h6v1.5h-6v-1.5h-6v-1.5h-6v-1.5h-3zm-25.5 15h1.5v1.5h1.5v1.5h1.5v4.5h1.5v4.5h1.5v6h1.5v4.5h1.5v4.5h-1.5v-4.5h-1.5v-4.5h-1.5v-6h-1.5v-4.5h-1.5v-4.5h-1.5v-1.5h-1.5z"/>
<text x="0.0" y="117.5" font-size="5.0" font-weight="bold" font-family="Arbeit Regular, Helvetica, Arial-Unicode, Arial, Sans-serif" fill="#000000">Created by BnB Studio</text><text x="0.0" y="122.5" font-size="5.0" font-weight="bold" font-family="Arbeit Regular, Helvetica, Arial-Unicode, Arial, Sans-serif" fill="#000000">from Noun Project</text></svg>